<svg width="39" height="26" viewBox="0 0 39 26" fill="none" xmlns="http://www.w3.org/2000/svg">
<g id="Paypal">
<path id="Shape 327" d="M2.46009 0.755127H37.1951C37.6439 0.767182 38.0696 0.956141 38.3795 1.28101C38.6894 1.60587 38.8581 2.04015 38.849 2.48901V24.1619C38.8581 24.6107 38.6894 25.045 38.3795 25.3699C38.0696 25.6947 37.6439 25.8837 37.1951 25.8958H2.46009C2.0113 25.8837 1.5854 25.6947 1.27552 25.3699C0.965643 25.045 0.796896 24.6107 0.806037 24.1619V2.48999C0.796629 2.04096 0.96537 1.60658 1.27528 1.28149C1.58518 0.956412 2.01112 0.767181 2.46009 0.755127Z" fill="#F1F1F1"/>
<path id="Shape 327 copy" d="M1.2179 25.3049C0.952286 24.9842 0.807621 24.5803 0.808967 24.1638V2.48999C0.799559 2.04096 0.968178 1.60658 1.27808 1.28149C1.58799 0.956412 2.01393 0.767181 2.4629 0.755127H37.1969C37.6186 0.756073 38.023 0.922587 38.3229 1.21899L1.22291 25.3049H1.2179Z" fill="white" fill-opacity="0.73"/>
<path id="Shape 335" d="M15.4539 18.72L16.7538 16.3699L16.0298 10.7259H17.8008L18.0868 14.0662L19.8198 10.7259H21.6478L17.4388 18.72H15.4539ZM9.90076 14.5042C10.1738 13.1302 11.5008 12.6942 13.4628 12.6942C13.5798 12.0832 13.1908 11.93 12.5288 11.953C11.9451 11.9812 11.3713 12.1144 10.8348 12.346L10.9897 10.973C11.6339 10.7728 12.3011 10.6554 12.9749 10.6239C14.2009 10.6019 15.5638 10.9933 15.2528 12.5863L14.4938 16.3363H12.7228L12.8387 15.7679C12.6332 15.98 12.3875 16.1494 12.1158 16.2655C11.8442 16.3815 11.5522 16.4422 11.2568 16.4442C10.4178 16.4402 9.67086 15.8938 9.90186 14.4998L9.90076 14.5042ZM11.7118 14.4168C11.656 14.4958 11.6244 14.5893 11.6206 14.6859C11.6168 14.7824 11.6411 14.8782 11.6906 14.9613C11.74 15.0443 11.8123 15.1114 11.8989 15.1541C11.9856 15.1969 12.0829 15.2133 12.1788 15.202C12.3979 15.2117 12.6131 15.142 12.7849 15.0057C12.9567 14.8694 13.0735 14.6759 13.1138 14.4603C13.1369 14.2917 13.1703 14.1248 13.2137 13.9603H12.7657C12.5662 13.9418 12.3653 13.9734 12.1812 14.0526C11.997 14.1317 11.8357 14.2554 11.7118 14.4129V14.4168ZM3.80078 16.3363L5.26477 9.16389H8.57178C8.86658 9.16128 9.15773 9.2295 9.42078 9.36262C9.68382 9.49574 9.91113 9.68994 10.0836 9.92903C10.2561 10.1681 10.3687 10.445 10.4121 10.7366C10.4555 11.0282 10.4282 11.3259 10.3328 11.6048C10.2376 12.2607 9.90883 12.8601 9.40686 13.2928C8.90489 13.7255 8.26355 13.9628 7.60083 13.9603H6.21777L5.7428 16.3363H3.80078ZM6.49377 12.5863H7.40381C7.67001 12.565 7.92205 12.4575 8.12207 12.2806C8.32209 12.1037 8.45926 11.8664 8.51282 11.6048C8.55479 11.4972 8.57019 11.3813 8.55774 11.2664C8.54529 11.1516 8.50535 11.0413 8.44128 10.9451C8.37722 10.849 8.29091 10.7699 8.1897 10.7142C8.08848 10.6585 7.97525 10.6275 7.85974 10.6248H6.90979L6.49377 12.5863Z" fill="#3284AE"/>
<path id="Shape 335_2" d="M27.118 14.4998C27.394 13.1258 28.735 12.6912 30.724 12.6912C30.862 12.0792 30.4681 11.928 29.7981 11.95C29.2019 11.9806 28.6155 12.1133 28.0641 12.342L28.222 10.969C28.8818 10.7713 29.5632 10.6543 30.2511 10.6208C31.4921 10.5988 32.851 10.9898 32.536 12.5818L31.7681 16.3308H29.995L30.113 15.7649C29.6835 16.194 29.1022 16.4371 28.495 16.4412C27.637 16.4402 26.881 15.8948 27.118 14.4998ZM28.951 14.4128C28.8971 14.4944 28.8678 14.59 28.8667 14.6877C28.8656 14.7855 28.8927 14.8813 28.9447 14.9641C28.9967 15.0469 29.0714 15.1131 29.1599 15.1545C29.2485 15.196 29.3472 15.2111 29.4441 15.198C29.6619 15.2077 29.8757 15.1378 30.046 15.0017C30.2163 14.8656 30.3315 14.6723 30.37 14.4578C30.409 14.2828 30.4291 14.1298 30.4701 13.9578H30.037C29.832 13.937 29.6252 13.9679 29.4351 14.0471C29.2449 14.1264 29.0775 14.2517 28.948 14.4119L28.951 14.4128ZM32.587 16.3308L34.0531 9.13696H35.873L34.3881 16.3308H32.587ZM21.0181 16.3308L22.4801 9.15991H25.78C26.074 9.15912 26.3639 9.2284 26.6257 9.36206C26.8876 9.49572 27.1137 9.68992 27.2855 9.92847C27.4573 10.167 27.5697 10.443 27.6134 10.7336C27.6571 11.0243 27.6309 11.3213 27.537 11.5999C27.4417 12.258 27.1111 12.8592 26.6063 13.2922C26.1016 13.7253 25.457 13.9607 24.792 13.9548H23.4291L22.9351 16.3298L21.0181 16.3308ZM23.7051 12.5818H24.593C24.8614 12.5611 25.116 12.4548 25.319 12.2781C25.522 12.1014 25.6626 11.8638 25.7201 11.6008C25.7599 11.4917 25.7731 11.3748 25.7585 11.2595C25.744 11.1443 25.7022 11.0341 25.6366 10.9382C25.571 10.8424 25.4834 10.7639 25.3812 10.7087C25.279 10.6535 25.1652 10.6232 25.0491 10.6208H24.1011L23.7051 12.5818Z" fill="#3CA9C7"/>
</g>
</svg>
