<svg width="40" height="26" viewBox="0 0 40 26" fill="none" xmlns="http://www.w3.org/2000/svg">
<path id="Shape 327" d="M2.51304 0.593994H37.513C37.7364 0.598285 37.9567 0.646599 38.1614 0.736084C38.366 0.825569 38.5511 0.95444 38.7059 1.11548C38.8607 1.27652 38.9822 1.46651 39.0636 1.67456C39.1449 1.88261 39.1845 2.10454 39.18 2.32788V24.0022C39.1845 24.2255 39.1449 24.4475 39.0636 24.6555C38.9822 24.8636 38.8607 25.0536 38.7059 25.2146C38.5511 25.3756 38.366 25.5045 38.1614 25.594C37.9567 25.6835 37.7364 25.7318 37.513 25.7361H2.51304C2.2897 25.7318 2.06941 25.6835 1.86473 25.594C1.66005 25.5045 1.47499 25.3756 1.32017 25.2146C1.16535 25.0536 1.04374 24.8636 0.962383 24.6555C0.881029 24.4475 0.841541 24.2255 0.84605 24.0022V2.32788C0.841541 2.10454 0.881029 1.88261 0.962383 1.67456C1.04374 1.46651 1.16535 1.27652 1.32017 1.11548C1.47499 0.95444 1.66005 0.825569 1.86473 0.736084C2.06941 0.646599 2.2897 0.598285 2.51304 0.593994Z" fill="url(#paint0_linear_8_581)"/>
<defs>
<linearGradient id="paint0_linear_8_581" x1="20.013" y1="25.7361" x2="20.013" y2="0.593994" gradientUnits="userSpaceOnUse">
<stop stop-color="#E59703"/>
<stop offset="0.231" stop-color="#E59703"/>
<stop offset="0.234" stop-color="white"/>
<stop offset="0.761" stop-color="white"/>
<stop offset="0.766" stop-color="#5457BB"/>
<stop offset="1" stop-color="#5457BB"/>
</linearGradient>
</defs>
</svg>
