<svg width="27" height="9" viewBox="0 0 27 9" fill="none" xmlns="http://www.w3.org/2000/svg">
<path id="Shape 328" d="M24.8181 8.82007L24.5662 7.52515H21.8322L21.3832 8.82007H19.1411L22.3481 0.755127C22.4227 0.555136 22.5594 0.384108 22.738 0.267334C22.9167 0.15056 23.1281 0.0942403 23.3412 0.106201H25.0702L26.7921 8.82104L24.8181 8.82007ZM23.5822 2.47583L22.4521 5.73706H24.2181L23.5822 2.47583ZM16.2952 2.59009C16.2952 3.54209 19.2952 3.74581 19.2952 5.93481C19.2952 8.04281 17.0802 8.81812 15.6132 8.81812C14.7794 8.8319 13.9521 8.66963 13.1852 8.34204L13.5051 6.4519C14.3851 7.1719 17.0542 7.37713 17.0542 6.23413C17.0542 5.09113 14.0792 5.06394 14.0792 2.88794C14.0792 0.575939 16.6132 0.0998535 17.6792 0.0998535C18.3395 0.116781 18.9926 0.240912 19.6132 0.467041L19.3062 2.27612C18.3882 1.76412 16.2932 1.64199 16.2932 2.59399L16.2952 2.59009ZM9.71118 8.82007L11.0552 0.104736H13.2062L11.8622 8.82007H9.71118ZM4.5542 8.82007L2.68811 1.25806C3.01776 1.46395 3.33227 1.69324 3.62915 1.94409C4.52617 2.71168 5.20869 3.69857 5.61011 4.80884L5.85315 6.09985L7.90417 0.106201H10.2191L6.79712 8.82104L4.5542 8.82007ZM0.760132 0.343994L0.660156 0.314209L0.760132 0.343994ZM0.540161 0.279053L0.492188 0.265869L0.540161 0.279053ZM1.06921 0.448975L0.941162 0.404053L1.06921 0.448975ZM2.56018 1.17407C2.49351 1.13274 2.42677 1.09293 2.36011 1.05493C2.42411 1.09893 2.49011 1.13696 2.55811 1.17896L2.56018 1.17407ZM2.04614 0.884033C1.98814 0.854033 1.92822 0.822189 1.87122 0.794189C1.92622 0.827189 1.98519 0.858916 2.04419 0.888916L2.04614 0.884033ZM1.51111 0.627197L1.39319 0.575928L1.51111 0.627197Z" fill="#494CA3"/>
</svg>
