<svg width="40" height="26" viewBox="0 0 40 26" fill="none" xmlns="http://www.w3.org/2000/svg">
<g id="Western-union">
<path id="Shape 327" d="M2.41001 0.791748H37.3921C37.6153 0.796169 37.8355 0.844784 38.04 0.934326C38.2446 1.02387 38.4295 1.15269 38.5842 1.31372C38.7389 1.47475 38.8605 1.66482 38.9418 1.8728C39.023 2.08078 39.0625 2.30286 39.058 2.52612V24.2019C39.0668 24.6526 38.8963 25.0883 38.5838 25.4133C38.2714 25.7383 37.8428 25.9259 37.3921 25.9348H2.41001C1.95929 25.9259 1.53055 25.7383 1.21812 25.4133C0.905694 25.0883 0.735159 24.6526 0.743999 24.2019V2.52612C0.739489 2.30286 0.77904 2.08078 0.860332 1.8728C0.941624 1.66482 1.06304 1.47475 1.21775 1.31372C1.37246 1.15269 1.55738 1.02387 1.76194 0.934326C1.96651 0.844784 2.18675 0.796169 2.41001 0.791748Z" fill="#353A40"/>
<path id="WESTERN UNION" d="M23.4332 17.3561C23.1689 17.2217 22.9514 17.01 22.8093 16.7496C22.6389 16.431 22.5561 16.0732 22.5693 15.712C22.5547 15.4659 22.5889 15.2192 22.6703 14.9865C22.7517 14.7537 22.8785 14.5395 23.0433 14.3561C23.2186 14.1892 23.4262 14.06 23.6534 13.9767C23.8807 13.8934 24.1227 13.8575 24.3643 13.8717C24.6077 13.856 24.8518 13.8903 25.0815 13.9723C25.3113 14.0543 25.5219 14.1825 25.7003 14.3488C25.8636 14.5287 25.9892 14.7396 26.0697 14.9689C26.1502 15.1982 26.1842 15.4412 26.1693 15.6837C26.1842 16.0354 26.1156 16.3856 25.9692 16.7057C25.8371 16.9663 25.6313 17.1823 25.3773 17.3268C25.0799 17.4841 24.7465 17.5608 24.4103 17.549C24.0741 17.5611 23.7396 17.4951 23.4332 17.3561ZM23.8392 14.9391C23.7103 15.1774 23.6428 15.444 23.6428 15.715C23.6428 15.9859 23.7103 16.2525 23.8392 16.4909C23.9072 16.5647 23.9899 16.6234 24.0818 16.6637C24.1737 16.704 24.2729 16.7252 24.3733 16.7252C24.4736 16.7252 24.5729 16.704 24.6648 16.6637C24.7567 16.6234 24.8392 16.5647 24.9072 16.4909C25.0588 16.2436 25.1256 15.9534 25.0973 15.6647C25.1188 15.4041 25.0481 15.1444 24.8973 14.9308C24.8313 14.8543 24.7486 14.794 24.6558 14.754C24.5629 14.714 24.4623 14.6953 24.3613 14.6998C24.2618 14.697 24.163 14.717 24.0725 14.7584C23.982 14.7999 23.9021 14.8619 23.8392 14.9391ZM13.9272 17.5128C13.753 17.4957 13.5834 17.4461 13.4272 17.3668C13.2857 17.2896 13.1607 17.1851 13.0593 17.0597C12.9555 16.9407 12.8775 16.8017 12.8303 16.651C12.769 16.4567 12.7353 16.2546 12.7303 16.0509V13.9327H13.8013V16.1007C13.7965 16.1831 13.808 16.266 13.8353 16.3439C13.8626 16.4218 13.9052 16.4934 13.9603 16.5548C14.0817 16.6591 14.2363 16.7164 14.3962 16.7164C14.5562 16.7164 14.7109 16.6591 14.8323 16.5548C14.8874 16.4928 14.9298 16.4204 14.9569 16.3419C14.984 16.2635 14.9953 16.1806 14.9902 16.0978V13.9298H16.0613V16.048C16.0618 16.2522 16.028 16.4551 15.9613 16.6481C15.8997 16.8317 15.797 16.9987 15.6613 17.1368C15.5415 17.2674 15.3944 17.3697 15.2303 17.4367C14.9891 17.5206 14.7346 17.5608 14.4792 17.5548C14.2949 17.5511 14.111 17.5368 13.9283 17.5118L13.9272 17.5128ZM29.0663 17.4889L27.7662 15.5368V17.4889H26.7562V13.9337H27.7562L29.0653 15.9V13.9337H30.0773V17.4889H29.0663ZM19.0883 17.4889L17.7883 15.5368V17.4889H16.7783V13.9337H17.7783L19.0863 15.9V13.9337H20.0983V17.4889H19.0883ZM20.8583 17.4796V13.9308H21.9382V17.4796H20.8583ZM12.6533 12.4987C12.4218 12.2588 12.2843 11.9439 12.2662 11.611L13.2883 11.546C13.299 11.6847 13.3451 11.818 13.4222 11.9337C13.478 12.0054 13.5502 12.0624 13.6327 12.1002C13.7152 12.138 13.8056 12.1556 13.8962 12.151C14.0243 12.1595 14.151 12.1196 14.2513 12.0397C14.2889 12.0099 14.3193 11.9723 14.3405 11.9293C14.3616 11.8863 14.3728 11.8391 14.3734 11.7911C14.374 11.7432 14.3638 11.696 14.3438 11.6525C14.3237 11.609 14.2942 11.5703 14.2573 11.5397C14.0911 11.4319 13.9034 11.3616 13.7073 11.3336C13.3418 11.2724 12.9965 11.1246 12.7003 10.902C12.6027 10.817 12.525 10.711 12.4731 10.5924C12.4213 10.4738 12.3964 10.3454 12.4003 10.216C12.4007 10.0322 12.4546 9.85254 12.5553 9.69886C12.6692 9.52744 12.8319 9.39423 13.0223 9.31605C13.2948 9.2117 13.5858 9.16423 13.8773 9.17689C14.2342 9.15308 14.5896 9.24183 14.8933 9.43079C15.0158 9.52773 15.1163 9.6499 15.188 9.7887C15.2597 9.92751 15.3011 10.0799 15.3093 10.236L14.2972 10.297C14.284 10.1641 14.2238 10.0402 14.1273 9.94788C14.0252 9.86995 13.8985 9.83138 13.7703 9.839C13.6696 9.83167 13.5697 9.86043 13.4883 9.92005C13.4583 9.94401 13.4342 9.97427 13.4177 10.0089C13.4013 10.0436 13.3929 10.0814 13.3933 10.1198C13.3941 10.1497 13.4016 10.179 13.4153 10.2057C13.429 10.2324 13.4484 10.2559 13.4723 10.2741C13.5815 10.3436 13.7048 10.3879 13.8333 10.4039C14.1808 10.4683 14.5196 10.5737 14.8423 10.7179C15.0243 10.8051 15.1779 10.9421 15.2853 11.1129C15.3781 11.2721 15.4259 11.4535 15.4233 11.6378C15.4246 11.8617 15.3602 12.0809 15.2383 12.2687C15.1129 12.4624 14.933 12.6148 14.7213 12.7067C14.456 12.8137 14.1712 12.8649 13.8853 12.8561C13.4436 12.9022 13.0015 12.7734 12.6533 12.4977V12.4987ZM29.0673 12.7887L27.7673 10.8361V12.7887H26.7573V9.23402H27.7573L29.0663 11.2008V9.23402H30.0782V12.7887H29.0673ZM25.1923 12.7887L24.6183 11.7018C24.5721 11.5987 24.5059 11.506 24.4233 11.4288C24.3464 11.3738 24.2539 11.3447 24.1593 11.3458H24.0643V12.7887H22.9852V9.23402H24.7743C25.0309 9.22395 25.2875 9.2532 25.5353 9.32093C25.7092 9.37776 25.859 9.49131 25.9603 9.64369C26.0715 9.81477 26.1277 10.0159 26.1213 10.2199C26.1258 10.398 26.0834 10.5745 25.9983 10.7311C25.9159 10.8735 25.799 10.9925 25.6583 11.0778C25.5409 11.1445 25.4136 11.1925 25.2812 11.2199C25.3805 11.2492 25.4749 11.2929 25.5613 11.3497C25.6256 11.4054 25.683 11.4685 25.7323 11.5377C25.7894 11.6062 25.8399 11.6801 25.8833 11.7579L26.4033 12.7887H25.1923ZM24.0653 10.673H24.5183C24.6143 10.6661 24.7093 10.6496 24.8022 10.6246C24.8719 10.6103 24.934 10.571 24.9763 10.5138C25.0214 10.4543 25.0453 10.3814 25.0443 10.3068C25.0474 10.2574 25.0394 10.2081 25.0209 10.1622C25.0024 10.1164 24.9738 10.075 24.9373 10.0416C24.8176 9.96809 24.6769 9.93629 24.5372 9.95081H24.0653V10.673ZM19.4653 12.7887V9.23402H22.3433V9.99281H20.5433V10.5577H22.2153V11.2838H20.5433V11.984H22.3983V12.7887H19.4653ZM16.8132 12.7887V10.1119H15.7183V9.23402H18.9833V10.1119H17.8833V12.7887H16.8132ZM8.94824 12.7887V9.23402H11.8263V9.99281H10.0262V10.5577H11.6973V11.2838H10.0183V11.984H11.8713V12.7887H8.94824ZM6.78125 12.7887L6.17224 10.5499L5.56531 12.7887H4.51233L3.73926 9.23402H4.75928L5.12634 11.2238L5.66431 9.23402H6.6803L7.21924 11.2218L7.5863 9.23402H8.60132L7.83533 12.7887H6.78125Z" fill="#ECD345"/>
<path id="Shape 338" d="M34.8679 17.551V9.17114H36.0679V17.551H34.8679ZM31.8779 17.551V9.17114H33.0779V17.551H31.8779Z" fill="#ECD345"/>
</g>
</svg>
